<svg xmlns="http://www.w3.org/2000/svg" viewBox="0 0 72 72"><defs><style>.cls-1{fill:#ea4337;}.cls-2{fill:#36a756;}.cls-3{fill:#f8bc09;}.cls-4{fill:#4485f3;}.cls-5{fill:none;}</style></defs><title>cili</title><g id="图层_2" data-name="图层 2"><g id="图层_1-2" data-name="图层 1"><path class="cls-1" d="M34.44,52.54c-3-.48-8.45-2.13-8.25-7.78.18-5.25.13-16.73,0-23.57H14.47V42.88a19.64,19.64,0,0,0,6.12,14.2A21.43,21.43,0,0,0,36,63V52.65A8,8,0,0,1,34.44,52.54Z"/><path class="cls-2" d="M45.76,21.17c-.06,6.84-.13,18.32.05,23.57.2,5.65-5.29,7.3-8.25,7.78a10.39,10.39,0,0,1-1.57.13V63a21.43,21.43,0,0,0,15.4-5.91,19.6,19.6,0,0,0,6.12-14.2V21.19H45.76Z"/><path class="cls-3" d="M26.22,18a2.38,2.38,0,0,0-2.52-2.21H17A2.41,2.41,0,0,0,14.47,18v3.21H26.24C26.24,19.94,26.22,18.84,26.22,18Z"/><path class="cls-3" d="M57.53,18A2.41,2.41,0,0,0,55,15.76H48.3A2.39,2.39,0,0,0,45.78,18c0,.88,0,2,0,3.22H57.51V18Z"/><path class="cls-4" d="M44.81,24.25,35.07,38.38c-.71,1-2.51.4-2.24-.78L35.2,27.46a1.11,1.11,0,0,0-.94-1.29l-6.1-1.12a1.06,1.06,0,0,1-.8-1.62L37,9.52c.71-1,2.51-.4,2.23.78l-2.31,9.91a1.11,1.11,0,0,0,.95,1.29L44,22.63A1.05,1.05,0,0,1,44.81,24.25Z"/><rect class="cls-5" width="72" height="72"/></g></g></svg>