<?xml version="1.0" standalone="no"?><!DOCTYPE svg PUBLIC "-//W3C//DTD SVG 1.1//EN" "http://www.w3.org/Graphics/SVG/1.1/DTD/svg11.dtd"><svg t="1585980951082" class="icon" viewBox="0 0 1024 1024" version="1.1" xmlns="http://www.w3.org/2000/svg" p-id="18089" width="128" height="128" xmlns:xlink="http://www.w3.org/1999/xlink"><defs><style type="text/css"></style></defs><path d="M794.20631637 794.06489502c-60.81118318 60.81118318-140.71424946 91.21677477-224.93066709 85.6306312-41.50716806-2.75771645-83.08504679-14.49568901-120.13744213-34.01183618-37.61808076-19.79898987-70.85209947-47.80041841-96.16652224-80.89301577l-162.91740238-213.2634052c-33.65828278-44.12346315-47.94183976-101.39911242-40.0929545-161.43247815C157.52737059 330.62711063 185.95306319 273.77572542 229.86439431 229.86439431c43.91133111-43.91133111 100.76271632-72.33702372 160.23039661-80.04448763 60.03336572-7.84888527 117.309015 6.43467171 161.43247815 40.09295449l213.2634052 162.91740238c33.09259736 25.31442277 61.09402589 58.54844148 80.96372645 96.09581157 19.51614716 37.05239533 31.32483041 78.55956339 34.08254685 120.06673144C885.42309114 653.35064556 855.01749955 733.25371183 794.20631637 794.06489502z" fill="#FFFBF0" p-id="18090"></path><path d="M456.70424971 456.70424971c-21.84959954 21.84959954-57.34635995 21.84959954-79.19595949 0l-89.09545443-89.09545443c-21.84959954-21.84959954-21.84959954-57.34635995 0-79.19595949s57.34635995-21.84959954 79.19595949 0l89.09545443 89.09545443c21.84959954 21.84959954 21.84959954 57.34635995 0 79.19595949z" fill="#2c2c2c" p-id="18091"></path><path d="M845.68369004 448.9967858c19.51614716 37.05239533 31.32483041 78.55956339 34.08254686 120.06673144C885.42309114 653.35064556 855.01749955 733.25371183 794.20631637 794.06489502s-140.71424946 91.21677477-225.00137777 85.55992052c-41.50716806-2.75771645-83.08504679-14.49568901-120.13744213-34.01183618-37.61808076-19.79898987-70.85209947-47.80041841-96.16652224-80.89301576l-9.26309883-12.09152596c10.25304833 7.14177849 20.85965005 13.64716088 31.96122651 19.51614716 37.05239533 19.51614716 78.63027407 31.25411973 120.13744212 34.01183617C579.95296167 811.74256454 659.85602795 781.33697295 720.66721113 720.52578977s91.21677477-140.71424946 85.6306312-225.07208845c-2.75771645-41.50716806-14.56639969-83.01433611-34.08254685-120.06673145-5.79827561-11.03086579-12.23294731-21.56675683-19.37472581-31.67838379l12.02081528 9.19238815c33.02188668 25.24371209 61.02331522 58.4777308 80.82230509 96.09581157z" fill="#D6D1C8" p-id="18092"></path><path d="M236.93546212 236.93546212c42.35569619-42.35569619 97.15647174-69.72072862 154.43212101-77.21606051 57.41707063-7.49533188 112.07642482 6.01040764 154.07856762 38.11305551l213.26340521 162.91740238c32.03193719 24.39518395 59.04341623 56.49783182 78.13529932 92.84312037 18.87975106 35.85031381 30.26417023 75.9432683 32.951176 116.10693347 5.44472222 81.38799051-23.9002092 158.53334034-82.66078272 217.29391386S651.22932522 875.09933214 569.91204538 869.7253206c-40.16366517-2.68700577-80.32733034-14.00071427-116.17764415-32.88046532-36.34528855-19.09188309-68.44793642-46.10336213-92.91383105-78.06458865l-162.91740238-213.2634052c-32.10264787-42.0021428-45.60838739-96.66149699-38.11305551-154.07856762C167.14402282 334.16264453 194.57976593 279.29115831 236.93546212 236.93546212m-14.14213563-14.14213563c-92.84312037 92.84312037-114.62200923 238.22427458-40.80006127 334.8150609l162.91740239 213.2634052C449.13820715 907.20198001 662.89658711 939.51675991 801.27738418 801.13596283c138.3100864-138.3100864 105.9953065-352.06846635-30.40559159-456.22529522l-213.2634052-162.91740239C461.01760108 108.17131726 315.63644686 129.95020612 222.79332649 222.79332649z" fill="#474133" p-id="18093"></path></svg>