<?xml version="1.0" standalone="no"?><!DOCTYPE svg PUBLIC "-//W3C//DTD SVG 1.1//EN" "http://www.w3.org/Graphics/SVG/1.1/DTD/svg11.dtd"><svg t="1585982584520" class="icon" viewBox="0 0 1024 1024" version="1.1" xmlns="http://www.w3.org/2000/svg" p-id="49900" width="16" height="16" xmlns:xlink="http://www.w3.org/1999/xlink"><defs><style type="text/css"></style></defs><path d="M133.12 276.48a20.48 20.48 0 1 0 0 40.96 20.48 20.48 0 1 0 0-40.96z" fill="#78A0CF" p-id="49901"></path><path d="M788.48 122.88a10.24 10.24 0 1 0 0 20.48 10.24 10.24 0 1 0 0-20.48z" fill="#F1BC19" p-id="49902"></path><path d="M512 133.12a378.88 378.88 0 1 0 0 757.76 378.88 378.88 0 1 0 0-757.76z" fill="#CEE1F4" p-id="49903"></path><path d="M849.92 112.64a40.96 40.96 0 1 0 0 81.92 40.96 40.96 0 1 0 0-81.92z" fill="#F1BC19" p-id="49904"></path><path d="M890.88 225.28a20.48 20.48 0 1 0 0 40.96 20.48 20.48 0 1 0 0-40.96z" fill="#78A0CF" p-id="49905"></path><path d="M829.44 757.76a20.48 20.48 0 1 0 0 40.96 20.48 20.48 0 1 0 0-40.96zM153.6 604.16a40.96 40.96 0 1 0 0 81.92 40.96 40.96 0 1 0 0-81.92z" fill="#FBCD59" p-id="49906"></path><path d="M256 870.4a20.48 20.48 0 1 0 0 40.96 20.48 20.48 0 1 0 0-40.96z" fill="#78A0CF" p-id="49907"></path><path d="M189.44 522.24a25.6 25.6 0 1 0 0 51.2 25.6 25.6 0 1 0 0-51.2z" fill="#FFFFFF" p-id="49908"></path><path d="M215.04 675.84a10.24 10.24 0 1 0 0 20.48 10.24 10.24 0 1 0 0-20.48z" fill="#F1BC19" p-id="49909"></path><path d="M819.2 337.92a10.24 10.24 0 1 0 0 20.48 10.24 10.24 0 1 0 0-20.48z" fill="#FFFFFF" p-id="49910"></path><path d="M360.78592 485.85728C373.21728 413.50144 436.10112 358.4 512 358.4c34.47808 0 66.19136 11.49952 91.83232 30.67904l65.46432-70.5024A247.3472 247.3472 0 0 0 512 262.4c-122.28608 0-223.85664 88.4224-244.43904 204.81024l93.22496 18.64704z" fill="#EA5167" p-id="49911"></path><path d="M603.1872 635.57632A152.8832 152.8832 0 0 1 512 665.6c-80.30208 0-146.10432-61.6448-152.92416-140.17536l-91.22816 30.4128C289.0752 671.42656 390.27712 759.04 512 759.04a247.37792 247.37792 0 0 0 166.6048-64.2048l-75.4176-59.25888z" fill="#00A698" p-id="49912"></path><path d="M701.44 465.92h-184.32v92.16h141.42464a154.04032 154.04032 0 0 1-64.47104 83.75296l74.1888 61.82912c56.14592-45.52704 92.0576-115.02592 92.0576-192.94208 0-15.3088-1.45408-30.2592-4.10624-44.8H701.44z" fill="#48BED8" p-id="49913"></path><path d="M358.4 512c0-22.35392 4.88448-43.54048 13.47584-62.69952l-80.05632-53.37088a247.12192 247.12192 0 0 0-28.13952 114.7904c0 38.74816 8.88832 75.4176 24.70912 108.09344L368.64 563.2c-3.74784-13.29152-10.24-36.7104-10.24-51.2z" fill="#FDE751" p-id="49914"></path><path d="M512 766.208c-140.87168 0-255.488-114.60608-255.488-255.488S371.12832 255.232 512 255.232c58.88 0 116.34688 20.5312 161.83296 57.81504l5.89824 4.83328-75.02848 80.81408-5.16096-3.86048A145.07008 145.07008 0 0 0 512 365.568c-80.7424 0-146.432 65.6896-146.432 146.432S431.2576 658.432 512 658.432c60.98944 0 114.6368-37.04832 136.43776-93.184L512 565.32992l-0.08192-104.28416 250.19392-0.08192 1.06496 5.87776c2.80576 15.39072 4.31104 28.68224 4.31104 43.8784 0 140.88192-114.60608 255.488-255.488 255.488z m0-496.64c-132.9664 0-241.152 108.17536-241.152 241.152S379.0336 751.872 512 751.872s241.152-108.17536 241.152-241.152c0-12.40064-1.0752-22.81472-3.072-35.40992H524.20608L524.288 550.912h144.0256l-2.92864 9.3184A160.1024 160.1024 0 0 1 512 672.768c-88.64768 0-160.768-72.12032-160.768-160.768S423.35232 351.232 512 351.232c32.6656 0 63.9488 9.7792 90.88 28.34432l55.88992-60.19072A241.68448 241.68448 0 0 0 512 269.568z" fill="#472B29" p-id="49915"></path></svg>