<svg xmlns="http://www.w3.org/2000/svg" xmlns:xlink="http://www.w3.org/1999/xlink" viewBox="0 0 237.73 50"><defs><style>.cls-1{fill:url(#未命名的渐变_53);}.cls-2{fill:url(#未命名的渐变_53-2);}.cls-3{fill:url(#未命名的渐变_53-3);}.cls-4{fill:url(#未命名的渐变_53-4);}.cls-5{fill:url(#未命名的渐变_53-5);}.cls-6{fill:url(#未命名的渐变_53-6);}</style><linearGradient id="未命名的渐变_53" y1="25.05" x2="35.46" y2="25.05" gradientUnits="userSpaceOnUse"><stop offset="0" stop-color="#00B4AC"/><stop offset="1" stop-color="#00DCA1"/></linearGradient><linearGradient id="未命名的渐变_53-2" x1="37.11" y1="25" x2="75.09" y2="25" xlink:href="#未命名的渐变_53"/><linearGradient id="未命名的渐变_53-3" x1="83.74" y1="25" x2="120.35" y2="25" xlink:href="#未命名的渐变_53"/><linearGradient id="未命名的渐变_53-4" x1="117.95" y1="25" x2="159.58" y2="25" xlink:href="#未命名的渐变_53"/><linearGradient id="未命名的渐变_53-5" x1="160.48" y1="25.05" x2="195.94" y2="25.05" xlink:href="#未命名的渐变_53"/><linearGradient id="未命名的渐变_53-6" x1="196.41" y1="25" x2="207.72" y2="25" xlink:href="#未命名的渐变_53"/></defs><title>logo</title><g id="图层_2" data-name="图层 2"><g id="图层_1-2" data-name="图层 1"><path class="cls-1" d="M14.5.65a3.13,3.13,0,0,0-1.36,2.83q0,2,2.37,4.92L32,29.22A14.06,14.06,0,0,1,35.46,38a11.84,11.84,0,0,1-.91,4.45,12.61,12.61,0,0,1-2.46,3.91,10.52,10.52,0,0,1-8,3.37c-.81,0-1.89-.07-3.23-.21a4.61,4.61,0,0,0,1.47-3A3.45,3.45,0,0,0,22,44.81a17.54,17.54,0,0,0-1.63-2.35L5.17,23.4a35.72,35.72,0,0,1-3.41-5A13.75,13.75,0,0,1,0,11.49,11.53,11.53,0,0,1,1.83,5.1Q4.81.39,11,.4A33.94,33.94,0,0,1,14.5.65ZM1,25.56,20,49.5H1ZM33.2.5V23.29L15.11.5Z"/><path class="cls-2" d="M57.25,0V50a27.61,27.61,0,0,1-6.82-1.11q-7.68-2.55-11-10.84a36.12,36.12,0,0,1-2.3-13.5q0-14.25,8.8-20.92A16.3,16.3,0,0,1,50.81,1,26.07,26.07,0,0,1,57.25,0Zm3.2,0a24.56,24.56,0,0,1,6,.9q6.93,2.12,11,9.29,3.19,5.72,3.19,14.36,0,14.35-7.29,20.86a16.9,16.9,0,0,1-5.43,3.3A26.91,26.91,0,0,1,60.45,50Z"/><path class="cls-3" d="M83.74.5H101.4v49H83.74ZM114.25,14V34.21l-11.81-10ZM120.35.5V19.92L103.59.5Z"/><path class="cls-4" d="M159.58,49.5H141.17L137.8,33h-3.67l3.38,16.51H118L129,7.83l4.13,20.27h3.7L131.19.5h18.42Z"/><path class="cls-5" d="M175,.65a3.13,3.13,0,0,0-1.36,2.83q0,2,2.37,4.92L192.5,29.22A14,14,0,0,1,195.94,38a11.84,11.84,0,0,1-.91,4.45,12.61,12.61,0,0,1-2.46,3.91,10.52,10.52,0,0,1-8,3.37c-.81,0-1.89-.07-3.23-.21a4.61,4.61,0,0,0,1.47-3,3.56,3.56,0,0,0-.37-1.64,19,19,0,0,0-1.64-2.35L165.65,23.4a35.72,35.72,0,0,1-3.41-5,13.75,13.75,0,0,1-1.76-6.92,11.53,11.53,0,0,1,1.83-6.39q3-4.71,9.19-4.7A33.94,33.94,0,0,1,175,.65ZM161.49,25.56l19,23.94h-19ZM193.68.5V23.29L175.59.5Z"/><path class="cls-6" d="M196.41.5h11.31L196.41,21.64Zm29.47,0v49H208.26V.5Zm11.85,0V21.64L226.42.5Z"/></g></g></svg>