<svg xmlns="http://www.w3.org/2000/svg" viewBox="0 0 72 72"><defs><style>.cls-1{fill:#ef8200;}.cls-2{fill:#be6111;}.cls-3{fill:#fcecd7;}.cls-4{fill:#ed780f;}.cls-5,.cls-8{fill:#c75801;}.cls-5,.cls-6{isolation:isolate;}.cls-7{fill:#ffedd9;}.cls-9{fill:none;}</style></defs><title>sm</title><g id="图层_2" data-name="图层 2"><g id="图层_1-2" data-name="图层 1"><path class="cls-1" d="M36.9,63a.55.55,0,0,0,.18,0h.27l.2,0,.27,0,.2,0,.25,0,.2,0,.25,0,.2,0,.23,0,.2,0,.23,0a.85.85,0,0,1,.22,0l.21,0,.22-.06.2,0,.23-.05.18-.06.25-.07a.15.15,0,0,0,.09,0A18.45,18.45,0,0,0,47.36,30L47,22.91a1.09,1.09,0,0,1-.22-1.1c.22-.73,2-1.29,2.2-5.4.27-5.34-3.44-9.7-3.69-5.95-.18,2.62-.77,7.36-2.34,8.08-.7.32-1.67-1.24-1.67-1.24,1.09-2.11.5-3,.5-3-.59,1.31-1.58,2.41-2.07,1.44a4.84,4.84,0,0,1,0-2.72c-.81,1.44-4.34,4.83-4,3.51a6.09,6.09,0,0,0,.11-2.46c-2.7,2.59-6.65,5.58-7.26,4.08-.72-1.76-1.24-6.42-1.71-8.28-.43-1.69-1.87-.43-2.12-.07-2.05,3.15-1.73,9.56.54,11.63.83.75-.09,1.58-.22,1.65L24.64,30c-.24.18-.47.38-.7.58s-.44.38-.65.58a18.46,18.46,0,0,0,7.53,31.09l.09,0,.25.07.18.06.23.05.2,0,.22.06.21,0a.85.85,0,0,0,.22,0,.91.91,0,0,0,.23,0l.2,0,.23,0,.2,0,.25,0,.2,0,.25,0,.2,0,.27,0,.2,0h.27a.55.55,0,0,1,.18,0,1.62,1.62,0,0,1,.31,0h1.26A1.27,1.27,0,0,0,36.9,63ZM51.32,44.57a15.29,15.29,0,0,1-3.06,9.2c-1-5.64-1-15.36-.69-19.25A15.26,15.26,0,0,1,51.32,44.57Zm-30.67,0a15.31,15.31,0,0,1,3.06-9.2c.22-.29.44-.57.68-.85.27,3.89.32,13.61-.68,19.25A15.42,15.42,0,0,1,20.65,44.57Z"/><path class="cls-2" d="M26.15,10.47s-.1,7.4,1.64,8.1l-1.67,1.75C25.76,20.64,22.73,13.62,26.15,10.47Z"/><path class="cls-2" d="M46.31,10.74s3.32,4.13-.3,9.92l-1.66-1.89S46.78,16.68,46.31,10.74Z"/><path class="cls-3" d="M36.76,36.9c-.6-.22-.69-1.8-.33-2.86.18-.53,1.14-1,1.42-1.3s.18-1.1-.54-1.49A11.19,11.19,0,0,0,36,31.17H36a11.25,11.25,0,0,0-1.3.08c-.72.39-.85,1.2-.54,1.49s1.24.77,1.42,1.3c.36,1.06.27,2.64-.32,2.86-1.14.43-2.7-.69-2.7-.7a3.89,3.89,0,0,0,2.81,1.49c.21.47.43.59.63.58H36c.2,0,.41-.11.63-.58a3.9,3.9,0,0,0,2.81-1.49S37.89,37.33,36.76,36.9Z"/><path class="cls-4" d="M42,41.29c-1.92,1.15-5.51,1.28-6,1.3h0c-.5,0-4.08-.15-6-1.3s-.77,2.81,1.8,3.57a17.55,17.55,0,0,0,4.21.61h0a17.55,17.55,0,0,0,4.21-.61C42.79,44.1,44.08,40,42,41.29Z"/><path class="cls-5" d="M48.72,24.53s-1.14-2.41-5.62-2.11a11.2,11.2,0,0,0-6.68,2.37h-.84a11.2,11.2,0,0,0-6.68-2.37c-4.48-.3-5.62,2.11-5.62,2.11l-.87-.1,0,1.17c1.11,0,.95.5.95.5,0,3.22.66,6.07,5.52,6.33S35,26.91,35.2,26.2a1.15,1.15,0,0,1,.8-.8,1.15,1.15,0,0,1,.8.8c.25.71,1.45,6.49,6.3,6.23s5.56-3.11,5.52-6.33c0,0-.16-.54,1-.5l0-1.17Z"/><g class="cls-6"><path class="cls-7" d="M28.88,23.55c-2.25,0-4.44.54-4.46,2.11,0,5.08,2.17,5.85,4.59,5.85,4.06,0,5-3.78,5-5.83S28.88,23.55,28.88,23.55Z"/><path class="cls-7" d="M43,31.51c-4.06,0-5-3.78-5-5.83s5.15-2.13,5.15-2.13c2.25,0,4.44.54,4.46,2.11C47.58,30.74,45.41,31.51,43,31.51Z"/></g><path class="cls-8" d="M24,30.55a13.12,13.12,0,0,1,.43,4c-.35.42-.41.5-.68.85a29.52,29.52,0,0,0-.42-4.22Z"/><path class="cls-8" d="M48,30.52a13.2,13.2,0,0,0-.44,4c.36.42.41.5.69.85a29.83,29.83,0,0,1,.42-4.25Z"/><rect class="cls-9" width="72" height="72"/></g></g></svg>