<svg xmlns="http://www.w3.org/2000/svg" viewBox="0 0 72 72"><defs><style>.cls-1{fill:#4485f3;}.cls-2{fill:none;}</style></defs><title>yingshi</title><g id="图层_2" data-name="图层 2"><g id="图层_1-2" data-name="图层 1"><path class="cls-1" d="M33.08,28.58l9.26,5.35a2.4,2.4,0,0,1,0,4.16l-9.88,5.72a2.41,2.41,0,0,1-3.61-2.09V31A2.82,2.82,0,0,1,33.08,28.58Z"/><path class="cls-1" d="M63.54,33.56,21.66,9.38a2.78,2.78,0,0,0-4.17,2.41V60.22a2.78,2.78,0,0,0,4.17,2.41L63.54,38.44A2.82,2.82,0,0,0,63.54,33.56Zm-11,4.9L25.78,53.91A1.87,1.87,0,0,1,23,52.29V21.4A2.81,2.81,0,0,1,27.2,19L52.52,33.58A2.81,2.81,0,0,1,52.54,38.46Z"/><rect class="cls-2" width="72" height="72"/></g></g></svg>